<svg width="111" height="173" viewBox="0 0 111 173" fill="none" xmlns="http://www.w3.org/2000/svg">
<path d="M102.941 67.3849H86.3216C85.6824 63.8338 84.4928 60.7088 82.7528 58.0099C81.0127 55.3111 78.882 53.0206 76.3607 51.1385C73.8394 49.2564 71.0162 47.8359 67.8912 46.8771C64.8018 45.9183 61.517 45.4389 58.0368 45.4389C51.7513 45.4389 46.1228 47.0192 41.1512 50.1797C36.2151 53.3402 32.3089 57.9744 29.4324 64.0824C26.5915 70.1903 25.1711 77.6477 25.1711 86.4545C25.1711 95.3324 26.5915 102.825 29.4324 108.933C32.3089 115.041 36.2329 119.658 41.2045 122.783C46.176 125.908 51.7691 127.47 57.9836 127.47C61.4282 127.47 64.6952 127.009 67.7847 126.085C70.9097 125.126 73.7329 123.724 76.2542 121.877C78.7755 120.031 80.9062 117.776 82.6462 115.112C84.4218 112.413 85.6469 109.324 86.3216 105.844L102.941 105.897C102.053 111.259 100.331 116.195 97.7741 120.705C95.2528 125.18 92.0035 129.05 88.0262 132.317C84.0844 135.549 79.5745 138.053 74.4964 139.828C69.4182 141.604 63.8785 142.491 57.877 142.491C48.431 142.491 40.0148 140.254 32.6285 135.78C25.2421 131.27 19.4182 124.825 15.1569 116.444C10.931 108.063 8.81809 98.0668 8.81809 86.4545C8.81809 74.8068 10.9488 64.8104 15.2101 56.4652C19.4715 48.0845 25.2954 41.657 32.6817 37.1825C40.0681 32.6726 48.4665 30.4176 57.877 30.4176C63.6654 30.4176 69.0631 31.2521 74.0702 32.9212C79.1128 34.5547 83.6405 36.9695 87.6533 40.1655C91.6661 43.326 94.9864 47.1967 97.6143 51.7777C100.242 56.3232 102.018 61.5256 102.941 67.3849Z" fill="#FF5353"/>
</svg>
