<svg width="5072" height="1833" viewBox="0 0 5072 1833" fill="none" xmlns="http://www.w3.org/2000/svg">
<path d="M555.66 274.902L476.406 275.982C471.408 253.25 462.933 233.335 450.98 216.238C439.24 199.138 424.981 184.842 408.204 173.351C391.637 161.643 373.299 152.944 353.191 147.251C333.083 141.559 312.164 138.861 290.433 139.157C250.806 139.697 215.044 150.199 183.146 170.664C151.462 191.126 126.405 220.98 107.975 260.226C89.7579 299.47 81.0355 347.427 81.8077 404.098C82.58 460.769 92.6058 508.47 111.885 547.203C131.378 585.932 157.239 615.092 189.469 634.683C221.913 654.272 257.948 663.796 297.575 663.256C319.306 662.96 340.144 659.692 360.089 653.454C380.034 647.216 398.13 638.126 414.375 626.185C430.83 614.028 444.692 599.242 455.962 581.829C467.441 564.199 475.371 544.061 479.75 521.414L559.004 520.334C553.494 553.864 543.037 583.945 527.631 610.578C512.226 637.211 492.931 659.954 469.749 678.809C446.563 697.451 420.442 711.764 391.385 721.749C362.541 731.731 331.608 736.947 298.585 737.397C242.766 738.157 192.94 725.199 149.107 698.521C105.273 671.843 70.5507 633.534 44.9389 583.594C19.3271 533.654 6.0509 474.171 5.11029 405.143C4.16968 336.115 15.8201 276.292 40.0617 225.673C64.3032 175.054 97.9691 135.813 141.059 107.95C184.15 80.088 233.604 65.7765 289.423 65.0158C322.445 64.5659 353.509 68.937 382.614 78.1294C411.933 87.3189 438.436 101.022 462.124 119.237C485.809 137.24 505.714 159.343 521.839 185.546C537.962 211.536 549.236 241.322 555.66 274.902ZM1211.81 716.003L1202.89 61.5181L1424.04 58.5046C1475.17 57.8079 1517.26 65.9709 1550.31 82.9938C1583.35 99.8036 1607.96 123.228 1624.14 153.266C1640.32 183.304 1648.67 217.604 1649.19 256.165C1649.72 294.727 1642.3 329.029 1626.94 359.07C1611.58 389.112 1587.72 412.877 1555.36 430.365C1522.99 447.64 1481.46 456.623 1430.75 457.314L1251.79 459.752L1250.81 388.168L1427.22 385.764C1462.16 385.288 1490.21 379.792 1511.38 369.275C1532.75 358.756 1548.11 344.057 1557.44 325.178C1566.98 306.083 1571.58 283.433 1571.22 257.228C1570.86 231.023 1565.65 208.187 1555.58 188.72C1545.51 169.253 1529.65 154.34 1507.99 143.981C1486.32 133.409 1457.8 128.364 1422.44 128.845L1283.1 130.744L1291.07 714.923L1211.81 716.003ZM1515.87 417.798L1680.94 709.61L1588.91 710.864L1426.39 419.017L1515.87 417.798ZM49.9733 1820.94L41.0549 1166.45L262.199 1163.44C313.331 1162.74 355.42 1170.9 388.468 1187.93C421.512 1204.74 446.124 1228.16 462.301 1258.2C478.479 1288.24 486.831 1322.54 487.356 1361.1C487.882 1399.66 480.465 1433.96 465.106 1464C449.747 1494.05 425.885 1517.81 393.521 1535.3C361.154 1552.57 319.618 1561.56 268.912 1562.25L89.9514 1564.69L88.976 1493.1L265.38 1490.7C300.32 1490.22 328.373 1484.72 349.538 1474.21C370.917 1463.69 386.272 1448.99 395.604 1430.11C405.145 1411.02 409.738 1388.37 409.381 1362.16C409.024 1335.96 403.811 1313.12 393.744 1293.65C383.677 1274.19 367.812 1259.27 346.149 1248.91C324.483 1238.34 295.967 1233.3 260.601 1233.78L121.267 1235.68L129.227 1819.86L49.9733 1820.94ZM354.035 1522.73L519.106 1814.54L427.069 1815.8L264.555 1523.95L354.035 1522.73Z" fill="#FF3939"/>
<path d="M2857.16 366.279C2858.1 435.307 2846.45 495.13 2822.2 545.749C2797.96 596.368 2764.3 635.609 2721.21 663.472C2678.12 691.334 2628.66 705.646 2572.84 706.406C2517.02 707.167 2467.2 694.208 2423.36 667.53C2379.53 640.852 2344.81 602.543 2319.2 552.604C2293.58 502.664 2280.31 443.18 2279.37 374.152C2278.43 305.125 2290.08 245.301 2314.32 194.682C2338.56 144.063 2372.23 104.822 2415.32 76.96C2458.41 49.0976 2507.86 34.7861 2563.68 34.0255C2619.5 33.2648 2669.33 46.2235 2713.16 72.9015C2756.99 99.5794 2791.71 137.888 2817.33 187.828C2842.94 237.768 2856.21 297.252 2857.16 366.279ZM2780.46 367.324C2779.69 310.653 2769.55 262.953 2750.06 224.224C2730.78 185.491 2704.92 156.331 2672.48 136.743C2640.25 117.152 2604.32 107.626 2564.69 108.166C2525.06 108.706 2489.3 119.209 2457.4 139.674C2425.72 160.136 2400.66 189.99 2382.23 229.236C2364.02 268.479 2355.29 316.436 2356.07 373.107C2356.84 429.778 2366.86 477.48 2386.14 516.212C2405.64 554.942 2431.5 584.102 2463.73 603.693C2496.17 623.281 2532.21 632.805 2571.83 632.265C2611.46 631.725 2647.12 621.224 2678.8 600.762C2710.7 580.297 2735.75 550.443 2753.97 511.2C2772.4 471.954 2781.23 423.995 2780.46 367.324ZM3868.06 188.852C3863.78 156.521 3847.89 131.594 3820.38 114.069C3792.86 96.5446 3759.29 88.0524 3719.66 88.5924C3690.69 88.9872 3665.4 94.0197 3643.8 103.69C3622.41 113.357 3605.75 126.476 3593.83 143.046C3582.12 159.614 3576.41 178.337 3576.7 199.215C3576.94 216.685 3581.29 231.649 3589.77 244.105C3598.46 256.346 3609.47 266.531 3622.79 274.66C3636.11 282.575 3650.05 289.098 3664.61 294.227C3679.17 299.142 3692.54 303.115 3704.73 306.146L3771.44 323.136C3788.55 327.378 3807.59 333.298 3828.58 340.896C3849.78 348.491 3870.06 358.976 3889.42 372.35C3908.99 385.508 3925.2 402.547 3938.06 423.467C3950.92 444.388 3957.56 470.188 3957.97 500.867C3958.46 536.233 3949.62 568.316 3931.48 597.117C3913.54 625.915 3887.01 648.971 3851.87 666.284C3816.95 683.593 3774.35 692.591 3724.07 693.276C3677.2 693.915 3636.51 686.905 3602 672.246C3567.71 657.584 3540.58 636.858 3520.61 610.068C3500.85 583.275 3489.45 551.999 3486.41 516.242L3568.22 515.127C3570.68 539.812 3579.27 560.151 3593.98 576.146C3608.9 591.924 3627.6 603.602 3650.07 611.18C3672.76 618.542 3697.1 622.046 3723.09 621.692C3753.35 621.28 3780.44 616.009 3804.38 605.881C3828.32 595.54 3847.2 581.432 3861.02 563.557C3874.84 545.469 3881.58 524.495 3881.26 500.633C3880.96 478.902 3874.65 461.302 3862.32 447.833C3849.99 434.363 3833.86 423.502 3813.93 415.25C3794 406.998 3772.49 399.833 3749.39 393.755L3668.55 371.844C3617.21 357.84 3576.45 337.406 3546.25 310.543C3516.05 283.679 3500.65 248.196 3500.05 204.095C3499.55 167.451 3509.02 135.359 3528.47 107.819C3548.12 80.0625 3574.67 58.3918 3608.13 42.8067C3641.79 27.0056 3679.5 18.8206 3721.26 18.2516C3763.45 17.6767 3801.05 24.729 3834.06 39.4084C3867.07 53.8747 3893.34 73.9731 3912.87 99.7038C3932.61 125.431 3943.24 154.799 3944.76 187.807L3868.06 188.852ZM4963.88 173.92C4959.61 141.589 4943.71 116.661 4916.2 99.1368C4888.69 81.6123 4855.11 73.12 4815.49 73.66C4786.51 74.0549 4761.22 79.0874 4739.62 88.7576C4718.23 98.425 4701.58 111.544 4689.66 128.114C4677.95 144.681 4672.24 163.404 4672.52 184.283C4672.76 201.753 4677.12 216.716 4685.6 229.173C4694.29 241.414 4705.3 251.598 4718.62 259.727C4731.94 267.643 4745.88 274.165 4760.44 279.294C4774.99 284.21 4788.37 288.183 4800.55 291.213L4867.27 308.204C4884.37 312.445 4903.42 318.365 4924.4 325.964C4945.6 333.559 4965.88 344.044 4985.24 357.417C5004.81 370.575 5021.03 387.614 5033.88 408.535C5046.74 429.456 5053.38 455.255 5053.8 485.934C5054.28 521.3 5045.45 553.384 5027.3 582.185C5009.37 610.983 4982.83 634.038 4947.7 651.351C4912.77 668.661 4870.17 677.659 4819.89 678.344C4773.02 678.982 4732.33 671.972 4697.83 657.313C4663.53 642.651 4636.4 621.925 4616.43 595.135C4596.67 568.342 4585.27 537.067 4582.23 501.31L4664.04 500.195C4666.51 524.88 4675.1 545.219 4689.8 561.213C4704.72 576.992 4723.42 588.67 4745.9 596.248C4768.58 603.61 4792.92 607.114 4818.92 606.759C4849.17 606.347 4876.27 601.077 4900.21 590.949C4924.14 580.607 4943.02 566.499 4956.84 548.625C4970.66 530.537 4977.41 509.562 4977.08 485.701C4976.79 463.97 4970.47 446.37 4958.14 432.9C4945.81 419.431 4929.68 408.57 4909.76 400.318C4889.83 392.066 4868.31 384.901 4845.22 378.823L4764.37 356.911C4713.04 342.908 4672.27 322.474 4642.08 295.61C4611.88 268.746 4596.48 233.264 4595.88 189.163C4595.38 152.519 4604.85 120.426 4624.29 92.8863C4643.94 65.1301 4670.5 43.4595 4703.95 27.8744C4737.62 12.0733 4775.33 3.88823 4817.09 3.31921C4859.27 2.7444 4896.87 9.79666 4929.88 24.476C4962.9 38.9423 4989.17 59.0408 5008.7 84.7714C5028.44 110.499 5039.07 139.867 5040.58 172.875L4963.88 173.92ZM1695.32 1471.21C1696.26 1540.24 1684.61 1600.06 1660.37 1650.68C1636.12 1701.3 1602.46 1740.54 1559.37 1768.4C1516.28 1796.27 1466.82 1810.58 1411 1811.34C1355.19 1812.1 1305.36 1799.14 1261.53 1772.46C1217.69 1745.79 1182.97 1707.48 1157.36 1657.54C1131.75 1607.6 1118.47 1548.11 1117.53 1479.09C1116.59 1410.06 1128.24 1350.23 1152.48 1299.62C1176.72 1249 1210.39 1209.76 1253.48 1181.89C1296.57 1154.03 1346.02 1139.72 1401.84 1138.96C1457.66 1138.2 1507.49 1151.16 1551.32 1177.83C1595.15 1204.51 1629.88 1242.82 1655.49 1292.76C1681.1 1342.7 1694.38 1402.18 1695.32 1471.21ZM1618.62 1472.26C1617.85 1415.59 1607.72 1367.89 1588.22 1329.16C1568.94 1290.42 1543.08 1261.26 1510.64 1241.68C1478.41 1222.08 1442.48 1212.56 1402.85 1213.1C1363.23 1213.64 1327.46 1224.14 1295.57 1244.61C1263.88 1265.07 1238.82 1294.92 1220.39 1334.17C1202.18 1373.41 1193.46 1421.37 1194.23 1478.04C1195 1534.71 1205.03 1582.41 1224.31 1621.15C1243.8 1659.87 1269.66 1689.04 1301.89 1708.63C1334.33 1728.21 1370.37 1737.74 1409.99 1737.2C1449.62 1736.66 1485.28 1726.16 1516.96 1705.7C1548.86 1685.23 1573.92 1655.38 1592.13 1616.13C1610.56 1576.89 1619.39 1528.93 1618.62 1472.26ZM2351.08 1789.58L2267.99 1790.71L2499.39 1132.95L2581.2 1131.84L2830.43 1783.05L2747.35 1784.18L2544.26 1235.9L2539.15 1235.97L2351.08 1789.58ZM2378.27 1533.5L2713.18 1528.94L2714.14 1599.25L2379.23 1603.81L2378.27 1533.5ZM3656.3 1771.79L3454.33 1774.55L3445.41 1120.06L3656.33 1117.19C3719.82 1116.32 3774.32 1128.68 3819.85 1154.27C3865.37 1179.65 3900.5 1216.57 3925.24 1265.03C3949.97 1313.28 3962.8 1371.27 3963.73 1439.02C3964.65 1507.2 3953.31 1566.06 3929.69 1615.6C3906.07 1664.94 3871.22 1703.13 3825.14 1730.18C3779.05 1757.02 3722.77 1770.89 3656.3 1771.79ZM3532.63 1703.16L3650.23 1701.56C3704.34 1700.82 3749.05 1689.77 3784.34 1668.41C3819.64 1647.04 3845.76 1616.96 3862.7 1578.16C3879.64 1539.36 3887.75 1493.33 3887.03 1440.07C3886.31 1387.23 3877.06 1341.86 3859.28 1303.96C3841.5 1265.85 3815.32 1236.8 3780.74 1216.82C3746.16 1196.62 3703.31 1186.87 3652.17 1187.56L3525.62 1189.29L3532.63 1703.16ZM4974.33 1262.88C4970.05 1230.55 4954.16 1205.62 4926.64 1188.1C4899.13 1170.57 4865.56 1162.08 4825.93 1162.62C4796.96 1163.01 4771.67 1168.05 4750.06 1177.72C4728.67 1187.38 4712.02 1200.5 4700.1 1217.07C4688.39 1233.64 4682.68 1252.36 4682.97 1273.24C4683.2 1290.71 4687.56 1305.68 4696.04 1318.13C4704.73 1330.37 4715.74 1340.56 4729.06 1348.69C4742.38 1356.6 4756.32 1363.12 4770.88 1368.25C4785.44 1373.17 4798.81 1377.14 4811 1380.17L4877.71 1397.16C4894.82 1401.4 4913.86 1407.32 4934.85 1414.92C4956.05 1422.52 4976.33 1433 4995.69 1446.38C5015.26 1459.53 5031.47 1476.57 5044.33 1497.49C5057.19 1518.41 5063.82 1544.21 5064.24 1574.89C5064.72 1610.26 5055.89 1642.34 5037.74 1671.14C5019.81 1699.94 4993.28 1723 4958.14 1740.31C4923.22 1757.62 4880.61 1766.62 4830.34 1767.3C4783.46 1767.94 4742.78 1760.93 4708.27 1746.27C4673.98 1731.61 4646.84 1710.88 4626.87 1684.09C4607.12 1657.3 4595.72 1626.03 4592.67 1590.27L4674.48 1589.15C4676.95 1613.84 4685.54 1634.18 4700.25 1650.17C4715.17 1665.95 4733.86 1677.63 4756.34 1685.21C4779.03 1692.57 4803.37 1696.07 4829.36 1695.72C4859.61 1695.31 4886.71 1690.04 4910.65 1679.91C4934.59 1669.57 4953.47 1655.46 4967.29 1637.58C4981.11 1619.5 4987.85 1598.52 4987.53 1574.66C4987.23 1552.93 4980.92 1535.33 4968.59 1521.86C4956.26 1508.39 4940.13 1497.53 4920.2 1489.28C4900.27 1481.02 4878.76 1473.86 4855.66 1467.78L4774.81 1445.87C4723.48 1431.87 4682.72 1411.43 4652.52 1384.57C4622.32 1357.71 4606.92 1322.22 4606.32 1278.12C4605.82 1241.48 4615.29 1209.39 4634.73 1181.85C4654.39 1154.09 4680.94 1132.42 4714.4 1116.83C4748.06 1101.03 4785.77 1092.85 4827.53 1092.28C4869.71 1091.7 4907.31 1098.76 4940.33 1113.43C4973.34 1127.9 4999.61 1148 5019.14 1173.73C5038.88 1199.46 5049.51 1228.83 5051.03 1261.83L4974.33 1262.88Z" fill="black"/>
</svg>
