<svg width="5072" height="1833" viewBox="0 0 5072 1833" fill="none" xmlns="http://www.w3.org/2000/svg">
<path d="M555.619 274.809L476.365 275.889C471.367 253.157 462.892 233.242 450.939 216.145C439.199 199.045 424.941 184.749 408.163 173.258C391.596 161.55 373.259 152.851 353.151 147.158C333.043 141.466 312.124 138.768 290.393 139.064C250.766 139.604 215.003 150.106 183.106 170.571C151.422 191.033 126.364 220.887 107.934 260.133C89.7173 299.377 80.995 347.334 81.7672 404.005C82.5394 460.676 92.5653 508.377 111.845 547.11C131.337 585.839 157.199 614.999 189.429 634.59C221.872 654.179 257.907 663.703 297.534 663.163C319.265 662.867 340.103 659.599 360.049 653.361C379.994 647.123 398.089 638.033 414.334 626.092C430.789 613.935 444.652 599.149 455.921 581.736C467.401 564.106 475.33 543.968 479.709 521.321L558.963 520.241C553.454 553.771 542.996 583.852 527.591 610.485C512.185 637.118 492.891 659.861 469.708 678.716C446.523 697.358 420.401 711.671 391.344 721.656C362.5 731.638 331.567 736.854 298.545 737.304C242.726 738.064 192.9 725.106 149.066 698.428C105.233 671.75 70.5102 633.441 44.8984 583.501C19.2866 533.561 6.01037 474.078 5.06976 405.05C4.12915 336.022 15.7796 276.199 40.0211 225.58C64.2627 174.961 97.9286 135.72 141.019 107.857C184.109 79.995 233.564 65.6834 289.382 64.9228C322.405 64.4728 353.469 68.844 382.574 78.0364C411.892 87.2258 438.395 100.928 462.083 119.144C485.768 137.147 505.673 159.25 521.799 185.453C537.922 211.443 549.195 241.229 555.619 274.809ZM1211.77 715.91L1202.85 61.425L1424 58.4116C1475.13 57.7148 1517.22 65.8779 1550.27 82.9008C1583.31 99.7106 1607.92 123.135 1624.1 153.173C1640.28 183.211 1648.63 217.511 1649.15 256.072C1649.68 294.634 1642.26 328.936 1626.9 358.977C1611.54 389.019 1587.68 412.784 1555.32 430.272C1522.95 447.547 1481.42 456.53 1430.71 457.221L1251.75 459.659L1250.77 388.075L1427.18 385.671C1462.12 385.195 1490.17 379.699 1511.34 369.182C1532.71 358.663 1548.07 343.963 1557.4 325.085C1566.94 305.99 1571.54 283.34 1571.18 257.135C1570.82 230.93 1565.61 208.094 1555.54 188.627C1545.47 169.16 1529.61 154.247 1507.95 143.888C1486.28 133.316 1457.76 128.27 1422.4 128.752L1283.06 130.651L1291.02 714.83L1211.77 715.91ZM1515.83 417.705L1680.9 709.517L1588.87 710.771L1426.35 418.924L1515.83 417.705ZM49.9328 1820.84L41.0144 1166.36L262.159 1163.34C313.29 1162.65 355.38 1170.81 388.427 1187.83C421.472 1204.64 446.083 1228.07 462.261 1258.11C478.439 1288.14 486.79 1322.44 487.316 1361.01C487.841 1399.57 480.425 1433.87 465.065 1463.91C449.706 1493.95 425.845 1517.72 393.48 1535.2C361.113 1552.48 319.577 1561.46 268.872 1562.15L89.9109 1564.59L88.9354 1493.01L265.34 1490.6C300.279 1490.13 328.332 1484.63 349.498 1474.12C370.876 1463.6 386.231 1448.9 395.563 1430.02C405.105 1410.92 409.697 1388.27 409.34 1362.07C408.983 1335.86 403.771 1313.03 393.704 1293.56C383.636 1274.09 367.771 1259.18 346.108 1248.82C324.442 1238.25 295.926 1233.2 260.56 1233.69L121.226 1235.58L129.187 1819.76L49.9328 1820.84ZM353.994 1522.64L519.065 1814.45L427.028 1815.7L264.514 1523.86L353.994 1522.64Z" fill="#FF3939"/>
<path d="M2857.11 366.186C2858.06 435.214 2846.4 495.037 2822.16 545.656C2797.92 596.275 2764.26 635.516 2721.17 663.379C2678.08 691.241 2628.62 705.553 2572.8 706.313C2516.98 707.074 2467.16 694.115 2423.32 667.437C2379.49 640.759 2344.77 602.45 2319.16 552.511C2293.54 502.571 2280.27 443.087 2279.33 374.059C2278.39 305.032 2290.04 245.208 2314.28 194.589C2338.52 143.97 2372.19 104.729 2415.28 76.867C2458.37 49.0046 2507.82 34.6931 2563.64 33.9324C2619.46 33.1718 2669.28 46.1305 2713.12 72.8085C2756.95 99.4864 2791.67 137.795 2817.29 187.735C2842.9 237.675 2856.17 297.159 2857.11 366.186ZM2780.42 367.231C2779.65 310.56 2769.51 262.86 2750.02 224.131C2730.74 185.398 2704.88 156.238 2672.44 136.65C2640.21 117.059 2604.28 107.533 2564.65 108.073C2525.02 108.613 2489.26 119.116 2457.36 139.581C2425.68 160.043 2400.62 189.897 2382.19 229.143C2363.98 268.386 2355.25 316.343 2356.02 373.014C2356.8 429.685 2366.82 477.387 2386.1 516.119C2405.6 554.849 2431.46 584.009 2463.69 603.6C2496.13 623.188 2532.16 632.712 2571.79 632.172C2611.42 631.632 2647.07 621.131 2678.76 600.669C2710.66 580.204 2735.71 550.35 2753.93 511.107C2772.36 471.861 2781.19 423.902 2780.42 367.231ZM3868.02 188.759C3863.74 156.428 3847.85 131.501 3820.33 113.976C3792.82 96.4516 3759.25 87.9594 3719.62 88.4994C3690.65 88.8942 3665.36 93.9267 3643.76 103.597C3622.37 113.264 3605.71 126.383 3593.79 142.953C3582.08 159.521 3576.37 178.244 3576.66 199.122C3576.89 216.592 3581.25 231.556 3589.73 244.012C3598.42 256.253 3609.43 266.438 3622.75 274.567C3636.07 282.482 3650.01 289.005 3664.57 294.134C3679.13 299.049 3692.5 303.022 3704.69 306.053L3771.4 323.043C3788.51 327.285 3807.55 333.205 3828.54 340.803C3849.74 348.398 3870.02 358.883 3889.38 372.257C3908.95 385.415 3925.16 402.454 3938.02 423.374C3950.88 444.295 3957.51 470.095 3957.93 500.774C3958.41 536.14 3949.58 568.223 3931.44 597.024C3913.5 625.822 3886.97 648.878 3851.83 666.191C3816.91 683.5 3774.31 692.498 3724.03 693.183C3677.16 693.822 3636.47 686.812 3601.96 672.152C3567.67 657.491 3540.54 636.765 3520.57 609.975C3500.81 583.182 3489.41 551.906 3486.37 516.149L3568.18 515.034C3570.64 539.719 3579.23 560.058 3593.94 576.053C3608.86 591.831 3627.55 603.509 3650.03 611.087C3672.72 618.449 3697.06 621.953 3723.05 621.599C3753.3 621.187 3780.4 615.916 3804.34 605.788C3828.28 595.447 3847.16 581.339 3860.98 563.464C3874.8 545.376 3881.54 524.402 3881.22 500.54C3880.92 478.809 3874.61 461.209 3862.28 447.74C3849.95 434.27 3833.82 423.409 3813.89 415.157C3793.96 406.905 3772.45 399.74 3749.35 393.662L3668.51 371.751C3617.17 357.747 3576.41 337.313 3546.21 310.45C3516.01 283.586 3500.61 248.103 3500.01 204.002C3499.51 167.358 3508.98 135.266 3528.43 107.726C3548.08 79.9695 3574.63 58.2988 3608.09 42.7137C3641.75 26.9126 3679.46 18.7276 3721.22 18.1585C3763.41 17.5837 3801 24.636 3834.02 39.3153C3867.03 53.7816 3893.3 73.8801 3912.83 99.6107C3932.57 125.338 3943.2 154.706 3944.72 187.714L3868.02 188.759ZM4963.84 173.827C4959.57 141.496 4943.67 116.568 4916.16 99.0438C4888.64 81.5193 4855.07 73.027 4815.45 73.567C4786.47 73.9618 4761.18 78.9944 4739.58 88.6646C4718.19 98.332 4701.53 111.451 4689.61 128.021C4677.91 144.588 4672.2 163.311 4672.48 184.19C4672.72 201.66 4677.08 216.623 4685.56 229.08C4694.25 241.321 4705.25 251.505 4718.58 259.634C4731.9 267.55 4745.84 274.072 4760.4 279.201C4774.95 284.117 4788.32 288.09 4800.51 291.12L4867.23 308.111C4884.33 312.352 4903.38 318.272 4924.36 325.871C4945.56 333.466 4965.84 343.951 4985.2 357.324C5004.77 370.482 5020.99 387.521 5033.84 408.442C5046.7 429.363 5053.34 455.162 5053.76 485.841C5054.24 521.207 5045.41 553.291 5027.26 582.092C5009.33 610.89 4982.79 633.945 4947.66 651.258C4912.73 668.568 4870.13 677.566 4819.85 678.251C4772.98 678.889 4732.29 671.879 4697.78 657.22C4663.49 642.558 4636.36 621.832 4616.39 595.042C4596.63 568.249 4585.23 536.974 4582.19 501.217L4664 500.102C4666.47 524.787 4675.06 545.126 4689.76 561.12C4704.68 576.899 4723.38 588.577 4745.86 596.155C4768.54 603.517 4792.88 607.021 4818.88 606.666C4849.13 606.254 4876.23 600.984 4900.17 590.856C4924.1 580.514 4942.98 566.406 4956.8 548.532C4970.62 530.444 4977.37 509.469 4977.04 485.608C4976.75 463.877 4970.43 446.277 4958.1 432.807C4945.77 419.338 4929.64 408.477 4909.71 400.225C4889.79 391.973 4868.27 384.808 4845.18 378.73L4764.33 356.818C4713 342.815 4672.23 322.381 4642.03 295.517C4611.84 268.653 4596.44 233.171 4595.84 189.07C4595.34 152.426 4604.81 120.333 4624.25 92.7933C4643.9 65.0371 4670.46 43.3665 4703.91 27.7813C4737.58 11.9803 4775.29 3.79521 4817.05 3.2262C4859.23 2.65138 4896.83 9.70364 4929.84 24.383C4962.86 38.8493 4989.13 58.9478 5008.66 84.6784C5028.4 110.406 5039.03 139.774 5040.54 172.782L4963.84 173.827ZM1695.28 1471.12C1696.22 1540.15 1684.57 1599.97 1660.33 1650.59C1636.08 1701.21 1602.42 1740.45 1559.33 1768.31C1516.24 1796.17 1466.78 1810.49 1410.96 1811.25C1355.15 1812.01 1305.32 1799.05 1261.49 1772.37C1217.65 1745.69 1182.93 1707.38 1157.32 1657.44C1131.71 1607.5 1118.43 1548.02 1117.49 1478.99C1116.55 1409.96 1128.2 1350.14 1152.44 1299.52C1176.68 1248.9 1210.35 1209.66 1253.44 1181.8C1296.53 1153.94 1345.98 1139.63 1401.8 1138.87C1457.62 1138.1 1507.45 1151.06 1551.28 1177.74C1595.11 1204.42 1629.84 1242.73 1655.45 1292.67C1681.06 1342.61 1694.34 1402.09 1695.28 1471.12ZM1618.58 1472.16C1617.81 1415.49 1607.67 1367.79 1588.18 1329.06C1568.9 1290.33 1543.04 1261.17 1510.6 1241.58C1478.37 1221.99 1442.44 1212.47 1402.81 1213.01C1363.19 1213.55 1327.42 1224.05 1295.53 1244.51C1263.84 1264.98 1238.78 1294.83 1220.35 1334.08C1202.14 1373.32 1193.41 1421.28 1194.19 1477.95C1194.96 1534.62 1204.99 1582.32 1224.26 1621.05C1243.76 1659.78 1269.62 1688.94 1301.85 1708.53C1334.29 1728.12 1370.33 1737.65 1409.95 1737.11C1449.58 1736.57 1485.24 1726.06 1516.92 1705.6C1548.82 1685.14 1573.88 1655.28 1592.09 1616.04C1610.52 1576.79 1619.35 1528.84 1618.58 1472.16ZM2351.03 1789.49L2267.95 1790.62L2499.35 1132.86L2581.16 1131.74L2830.39 1782.95L2747.3 1784.09L2544.22 1235.81L2539.11 1235.88L2351.03 1789.49ZM2378.23 1533.41L2713.14 1528.85L2714.1 1599.15L2379.19 1603.72L2378.23 1533.41ZM3656.26 1771.7L3454.29 1774.45L3445.37 1119.97L3656.29 1117.09C3719.78 1116.23 3774.28 1128.59 3819.81 1154.18C3865.33 1179.56 3900.46 1216.48 3925.2 1264.94C3949.93 1313.18 3962.76 1371.18 3963.68 1438.93C3964.61 1507.11 3953.27 1565.97 3929.65 1615.51C3906.03 1664.84 3871.18 1703.03 3825.1 1730.09C3779.01 1756.92 3722.73 1770.8 3656.26 1771.7ZM3532.58 1703.07L3650.19 1701.46C3704.3 1700.73 3749.01 1689.68 3784.3 1668.31C3819.6 1646.95 3845.71 1616.87 3862.66 1578.07C3879.6 1539.27 3887.71 1493.24 3886.99 1439.98C3886.27 1387.14 3877.02 1341.77 3859.24 1303.87C3841.46 1265.76 3815.28 1236.71 3780.7 1216.72C3746.12 1196.52 3703.26 1186.77 3652.13 1187.47L3525.58 1189.19L3532.58 1703.07ZM4974.29 1262.79C4970.01 1230.45 4954.12 1205.53 4926.6 1188C4899.09 1170.48 4865.52 1161.99 4825.89 1162.53C4796.92 1162.92 4771.63 1167.95 4750.02 1177.62C4728.63 1187.29 4711.98 1200.41 4700.06 1216.98C4688.35 1233.55 4682.64 1252.27 4682.92 1273.15C4683.16 1290.62 4687.52 1305.58 4696 1318.04C4704.69 1330.28 4715.7 1340.46 4729.02 1348.59C4742.34 1356.51 4756.28 1363.03 4770.84 1368.16C4785.4 1373.08 4798.77 1377.05 4810.96 1380.08L4877.67 1397.07C4894.78 1401.31 4913.82 1407.23 4934.81 1414.83C4956.01 1422.42 4976.29 1432.91 4995.65 1446.28C5015.22 1459.44 5031.43 1476.48 5044.29 1497.4C5057.15 1518.32 5063.78 1544.12 5064.2 1574.8C5064.68 1610.17 5055.85 1642.25 5037.7 1671.05C5019.77 1699.85 4993.24 1722.9 4958.1 1740.22C4923.18 1757.53 4880.57 1766.52 4830.29 1767.21C4783.42 1767.85 4742.74 1760.84 4708.23 1746.18C4673.93 1731.52 4646.8 1710.79 4626.83 1684C4607.08 1657.21 4595.68 1625.93 4592.63 1590.18L4674.44 1589.06C4676.91 1613.75 4685.5 1634.08 4700.21 1650.08C4715.12 1665.86 4733.82 1677.54 4756.3 1685.11C4778.99 1692.48 4803.33 1695.98 4829.32 1695.63C4859.57 1695.21 4886.67 1689.94 4910.61 1679.81C4934.55 1669.47 4953.43 1655.37 4967.25 1637.49C4981.06 1619.4 4987.81 1598.43 4987.49 1574.57C4987.19 1552.84 4980.88 1535.24 4968.55 1521.77C4956.22 1508.3 4940.09 1497.44 4920.16 1489.18C4900.23 1480.93 4878.72 1473.77 4855.62 1467.69L4774.77 1445.78C4723.44 1431.77 4682.68 1411.34 4652.48 1384.48C4622.28 1357.61 4606.88 1322.13 4606.28 1278.03C4605.78 1241.38 4615.25 1209.29 4634.69 1181.75C4654.35 1154 4680.9 1132.33 4714.35 1116.74C4748.02 1100.94 4785.73 1092.75 4827.49 1092.19C4869.67 1091.61 4907.27 1098.66 4940.29 1113.34C4973.3 1127.81 4999.57 1147.91 5019.1 1173.64C5038.84 1199.36 5049.47 1228.73 5050.99 1261.74L4974.29 1262.79Z" fill="white"/>
</svg>
