<svg width="113" height="41" viewBox="0 0 113 41" fill="none" xmlns="http://www.w3.org/2000/svg">
<path d="M12.5873 6.38307L10.8261 6.40707C10.715 5.90191 10.5267 5.45936 10.2611 5.07942C10.0002 4.69941 9.68333 4.38173 9.3105 4.12637C8.94233 3.86621 8.53483 3.67288 8.08799 3.54638C7.64115 3.41988 7.17628 3.35992 6.69337 3.36651C5.81277 3.3785 5.01805 3.61189 4.30922 4.06667C3.60512 4.52138 3.04829 5.18481 2.63874 6.05694C2.23392 6.92902 2.04009 7.99473 2.05725 9.25408C2.07441 10.5134 2.2972 11.5735 2.72564 12.4342C3.15881 13.2948 3.7335 13.9429 4.44973 14.3782C5.17069 14.8135 5.97147 15.0252 6.85207 15.0132C7.33498 15.0066 7.79805 14.934 8.24128 14.7953C8.6845 14.6567 9.08662 14.4547 9.44762 14.1894C9.81329 13.9192 10.1213 13.5906 10.3718 13.2037C10.6269 12.8119 10.8031 12.3644 10.9004 11.8611L12.6616 11.8371C12.5392 12.5822 12.3068 13.2507 11.9644 13.8425C11.6221 14.4344 11.1933 14.9398 10.6782 15.3588C10.1629 15.773 9.58245 16.0911 8.93674 16.313C8.29576 16.5348 7.60835 16.6507 6.87452 16.6607C5.63411 16.6776 4.52686 16.3897 3.55278 15.7968C2.5787 15.204 1.80709 14.3527 1.23794 13.2429C0.668788 12.1331 0.373762 10.8113 0.352859 9.27731C0.331957 7.74336 0.590856 6.41395 1.12956 5.28908C1.66826 4.16422 2.41639 3.2922 3.37395 2.67303C4.33151 2.05387 5.4305 1.73583 6.67092 1.71893C7.40475 1.70893 8.09506 1.80607 8.74184 2.01034C9.39336 2.21455 9.98231 2.51906 10.5087 2.92385C11.035 3.32392 11.4774 3.81509 11.8357 4.39739C12.194 4.97495 12.4445 5.63684 12.5873 6.38307ZM27.1684 16.1853L26.9702 1.6412L31.8846 1.57424C33.0208 1.55875 33.9561 1.74016 34.6905 2.11844C35.4249 2.49199 35.9718 3.01253 36.3313 3.68004C36.6908 4.34755 36.8764 5.10977 36.8881 5.9667C36.8997 6.82363 36.7349 7.58589 36.3936 8.25348C36.0523 8.92107 35.522 9.44918 34.8028 9.8378C34.0836 10.2217 33.1605 10.4213 32.0337 10.4367L28.0568 10.4909L28.0352 8.90009L31.9553 8.84668C32.7317 8.8361 33.3551 8.71395 33.8254 8.48025C34.3005 8.24648 34.6417 7.91983 34.8491 7.5003C35.0611 7.07597 35.1632 6.57264 35.1553 5.99031C35.1473 5.40798 35.0315 4.90051 34.8078 4.46791C34.5841 4.03532 34.2315 3.70392 33.7501 3.47371C33.2686 3.23877 32.635 3.12666 31.849 3.13737L28.7527 3.17956L28.9296 16.1613L27.1684 16.1853ZM33.9254 9.55854L37.5936 16.0432L35.5483 16.0711L31.9369 9.58563L33.9254 9.55854ZM1.34709 40.5394L1.1489 25.9953L6.06322 25.9283C7.19948 25.9128 8.1348 26.0942 8.86919 26.4725C9.60352 26.8461 10.1504 27.3666 10.5099 28.0341C10.8694 28.7016 11.055 29.4639 11.0667 30.3208C11.0784 31.1777 10.9136 31.94 10.5723 32.6076C10.2309 33.2752 9.70069 33.8033 8.98148 34.1919C8.26221 34.5758 7.33919 34.7754 6.2124 34.7907L2.23549 34.8449L2.21382 33.2542L6.13391 33.2008C6.91035 33.1902 7.53374 33.068 8.00409 32.8343C8.47917 32.6006 8.82039 32.2739 9.02776 31.8544C9.2398 31.4301 9.34186 30.9267 9.33392 30.3444C9.32599 29.7621 9.21016 29.2546 8.98644 28.822C8.76272 28.3894 8.41016 28.058 7.92876 27.8278C7.4473 27.5929 6.81361 27.4807 6.0277 27.4915L2.93139 27.5336L3.10829 40.5154L1.34709 40.5394ZM8.10402 33.9126L11.7723 40.3973L9.72699 40.4252L6.11556 33.9397L8.10402 33.9126Z" fill="#FF3939"/>
<path d="M63.7316 8.41367C63.7525 9.94762 63.4936 11.277 62.9549 12.4019C62.4162 13.5268 61.6681 14.3988 60.7105 15.0179C59.753 15.6371 58.654 15.9551 57.4136 15.9721C56.1732 15.989 55.0659 15.701 54.0918 15.1081C53.1178 14.5153 52.3462 13.664 51.777 12.5542C51.2078 11.4444 50.9128 10.1226 50.8919 8.58863C50.871 7.05469 51.1299 5.72528 51.6686 4.60041C52.2073 3.47554 52.9554 2.60352 53.913 1.98436C54.8706 1.36519 55.9696 1.04716 57.21 1.03026C58.4504 1.01335 59.5576 1.30132 60.5317 1.89417C61.5058 2.48701 62.2774 3.33832 62.8466 4.44809C63.4157 5.55786 63.7107 6.87972 63.7316 8.41367ZM62.0272 8.4369C62.0101 7.17754 61.7849 6.11754 61.3518 5.25689C60.9233 4.39617 60.3486 3.74816 59.6277 3.31287C58.9114 2.87751 58.113 2.66583 57.2324 2.67783C56.3518 2.68983 55.5571 2.92322 54.8483 3.37799C54.1442 3.83271 53.5874 4.49613 53.1778 5.36827C52.773 6.24034 52.5791 7.30606 52.5963 8.56541C52.6135 9.82476 52.8363 10.8848 53.2647 11.7455C53.6979 12.6062 54.2726 13.2542 54.9888 13.6895C55.7097 14.1248 56.5105 14.3365 57.3911 14.3245C58.2717 14.3125 59.0641 14.0791 59.7682 13.6244C60.477 13.1696 61.0338 12.5062 61.4387 11.6341C61.8482 10.762 62.0444 9.69625 62.0272 8.4369ZM86.1962 4.47086C86.1012 3.75239 85.7479 3.19844 85.1365 2.809C84.5251 2.41957 83.7791 2.23085 82.8985 2.24285C82.2546 2.25163 81.6926 2.36346 81.2126 2.57836C80.7372 2.79319 80.3671 3.08471 80.1022 3.45294C79.8421 3.8211 79.7151 4.23717 79.7215 4.70114C79.7267 5.08936 79.8236 5.42188 80.0121 5.6987C80.2052 5.97071 80.4498 6.19704 80.7458 6.37768C81.0418 6.55359 81.3516 6.69853 81.6751 6.8125C81.9986 6.92174 82.2958 7.01003 82.5666 7.07737L84.0492 7.45493C84.4293 7.54919 84.8525 7.68075 85.3189 7.8496C85.7899 8.01839 86.2406 8.25138 86.6708 8.54857C87.1057 8.84097 87.466 9.21962 87.7518 9.68452C88.0375 10.1494 88.185 10.7227 88.1943 11.4045C88.205 12.1904 88.0087 12.9034 87.6055 13.5434C87.2069 14.1834 86.6173 14.6957 85.8365 15.0804C85.0604 15.4651 84.1137 15.665 82.9964 15.6803C81.9548 15.6945 81.0506 15.5387 80.2838 15.2129C79.5217 14.8871 78.9188 14.4265 78.475 13.8312C78.036 13.2358 77.7826 12.5408 77.715 11.7462L79.533 11.7214C79.5878 12.27 79.7787 12.7219 80.1055 13.0774C80.437 13.428 80.8525 13.6875 81.352 13.8559C81.8562 14.0195 82.3971 14.0974 82.9747 14.0895C83.647 14.0803 84.2491 13.9632 84.7811 13.7382C85.3131 13.5083 85.7326 13.1948 86.0398 12.7976C86.3468 12.3957 86.4967 11.9296 86.4895 11.3993C86.4829 10.9164 86.3426 10.5253 86.0686 10.226C85.7946 9.92664 85.4362 9.68529 84.9933 9.50192C84.5504 9.31854 84.0724 9.15932 83.5591 9.02426L81.7626 8.53733C80.6218 8.22613 79.716 7.77205 79.0449 7.17508C78.3738 6.57811 78.0316 5.78961 78.0182 4.80959C78.0071 3.99527 78.2176 3.28211 78.6497 2.6701C79.0864 2.0533 79.6764 1.57173 80.4199 1.22539C81.168 0.874259 82.0061 0.692369 82.934 0.679725C83.8714 0.666951 84.707 0.823668 85.4406 1.14988C86.1743 1.47135 86.7581 1.91798 87.192 2.48977C87.6307 3.0615 87.8669 3.71412 87.9006 4.44763L86.1962 4.47086ZM110.548 4.13903C110.453 3.42056 110.1 2.86661 109.488 2.47717C108.877 2.08774 108.131 1.89902 107.25 1.91102C106.606 1.9198 106.044 2.03163 105.564 2.24653C105.089 2.46136 104.719 2.75288 104.454 3.12111C104.194 3.48927 104.067 3.90534 104.073 4.36931C104.078 4.75753 104.175 5.09005 104.364 5.36687C104.557 5.63888 104.801 5.86521 105.097 6.04585C105.393 6.22176 105.703 6.3667 106.027 6.48067C106.35 6.58991 106.647 6.6782 106.918 6.74554L108.401 7.1231C108.781 7.21736 109.204 7.34892 109.67 7.51777C110.142 7.68656 110.592 7.91955 111.022 8.21674C111.457 8.50914 111.818 8.88779 112.103 9.35269C112.389 9.81759 112.537 10.3909 112.546 11.0727C112.557 11.8586 112.36 12.5716 111.957 13.2116C111.559 13.8515 110.969 14.3639 110.188 14.7486C109.412 15.1333 108.465 15.3332 107.348 15.3484C106.306 15.3626 105.402 15.2069 104.635 14.8811C103.873 14.5553 103.27 14.0947 102.827 13.4994C102.388 12.904 102.134 12.209 102.067 11.4144L103.885 11.3896C103.939 11.9381 104.13 12.3901 104.457 12.7455C104.789 13.0962 105.204 13.3557 105.704 13.5241C106.208 13.6877 106.749 13.7655 107.326 13.7577C107.999 13.7485 108.601 13.6314 109.133 13.4063C109.665 13.1765 110.084 12.863 110.391 12.4658C110.698 12.0638 110.848 11.5977 110.841 11.0675C110.835 10.5846 110.694 10.1935 110.42 9.89414C110.146 9.59481 109.788 9.35346 109.345 9.17009C108.902 8.98671 108.424 8.82749 107.911 8.69243L106.114 8.2055C104.973 7.8943 104.068 7.44022 103.397 6.84325C102.725 6.24628 102.383 5.45778 102.37 4.47776C102.359 3.66344 102.569 2.95028 103.001 2.33827C103.438 1.72147 104.028 1.2399 104.772 0.893565C105.52 0.542429 106.358 0.360539 107.286 0.347895C108.223 0.335121 109.059 0.491838 109.792 0.818046C110.526 1.13952 111.11 1.58615 111.544 2.15794C111.982 2.72967 112.219 3.38229 112.252 4.1158L110.548 4.13903ZM37.9103 32.7678C37.9312 34.3017 37.6723 35.6311 37.1336 36.756C36.5949 37.8809 35.8468 38.7529 34.8892 39.372C33.9316 39.9912 32.8326 40.3092 31.5922 40.3261C30.3518 40.343 29.2446 40.0551 28.2705 39.4622C27.2964 38.8694 26.5248 38.0181 25.9557 36.9083C25.3865 35.7985 25.0915 34.4767 25.0706 32.9427C25.0497 31.4088 25.3086 30.0794 25.8473 28.9545C26.386 27.8296 27.1341 26.9576 28.0917 26.3384C29.0492 25.7193 30.1482 25.4012 31.3886 25.3843C32.629 25.3674 33.7363 25.6554 34.7104 26.2483C35.6844 26.8411 36.4561 27.6924 37.0252 28.8022C37.5944 29.9119 37.8894 31.2338 37.9103 32.7678ZM36.2059 32.791C36.1887 31.5316 35.9636 30.4716 35.5304 29.611C35.102 28.7503 34.5273 28.1022 33.8063 27.667C33.0901 27.2316 32.2917 27.0199 31.4111 27.0319C30.5305 27.0439 29.7358 27.2773 29.0269 27.7321C28.3228 28.1868 27.766 28.8502 27.3565 29.7224C26.9516 30.5944 26.7578 31.6601 26.775 32.9195C26.7921 34.1788 27.0149 35.2389 27.4434 36.0996C27.8765 36.9603 28.4512 37.6083 29.1674 38.0436C29.8884 38.4789 30.6892 38.6906 31.5698 38.6786C32.4504 38.6666 33.2427 38.4332 33.9468 37.9785C34.6557 37.5237 35.2125 36.8603 35.6173 35.9882C36.0269 35.1161 36.2231 34.0503 36.2059 32.791ZM52.4827 39.8426L50.6363 39.8677L55.7785 25.2509L57.5965 25.2261L63.1351 39.6974L61.2887 39.7226L56.7757 27.5386L56.662 27.5402L52.4827 39.8426ZM53.087 34.152L60.5295 34.0506L60.5508 35.6129L53.1083 35.7144L53.087 34.152ZM81.4877 39.4474L76.9994 39.5085L76.8013 24.9644L81.4883 24.9005C82.8992 24.8813 84.1104 25.156 85.122 25.7247C86.1336 26.2886 86.9143 27.109 87.464 28.1859C88.0137 29.2581 88.2988 30.5469 88.3194 32.0524C88.34 33.5675 88.0879 34.8755 87.5631 35.9765C87.0382 37.0727 86.2637 37.9214 85.2396 38.5226C84.2155 39.119 82.9648 39.4272 81.4877 39.4474ZM78.7394 37.9222L81.3528 37.8865C82.5553 37.8702 83.5487 37.6246 84.333 37.1498C85.1174 36.6751 85.6978 36.0066 86.0743 35.1444C86.4509 34.2822 86.6311 33.2593 86.615 32.0757C86.599 30.9015 86.3935 29.8934 85.9984 29.0511C85.6033 28.2041 85.0216 27.5586 84.2531 27.1145C83.4846 26.6656 82.5322 26.449 81.396 26.4644L78.5837 26.5028L78.7394 37.9222ZM110.777 28.1381C110.682 27.4197 110.329 26.8657 109.718 26.4763C109.106 26.0868 108.36 25.8981 107.479 25.9101C106.836 25.9189 106.274 26.0307 105.794 26.2456C105.318 26.4605 104.948 26.752 104.683 27.1202C104.423 27.4884 104.296 27.9044 104.302 28.3684C104.308 28.7566 104.405 29.0892 104.593 29.366C104.786 29.638 105.031 29.8643 105.327 30.045C105.623 30.2209 105.933 30.3658 106.256 30.4798C106.58 30.589 106.877 30.6773 107.148 30.7446L108.63 31.1222C109.01 31.2165 109.434 31.348 109.9 31.5169C110.371 31.6857 110.822 31.9187 111.252 32.2158C111.687 32.5082 112.047 32.8869 112.333 33.3518C112.618 33.8167 112.766 34.39 112.775 35.0718C112.786 35.8577 112.59 36.5707 112.186 37.2107C111.788 37.8506 111.198 38.363 110.417 38.7477C109.641 39.1324 108.695 39.3323 107.577 39.3475C106.536 39.3617 105.632 39.206 104.865 38.8802C104.103 38.5544 103.5 38.0938 103.056 37.4985C102.617 36.9031 102.364 36.2081 102.296 35.4135L104.114 35.3887C104.169 35.9372 104.36 36.3892 104.687 36.7446C105.018 37.0953 105.434 37.3548 105.933 37.5232C106.437 37.6868 106.978 37.7647 107.556 37.7568C108.228 37.7476 108.83 37.6305 109.362 37.4054C109.894 37.1756 110.314 36.8621 110.621 36.4649C110.928 36.0629 111.078 35.5968 111.07 35.0666C111.064 34.5837 110.924 34.1926 110.65 33.8932C110.376 33.5939 110.017 33.3526 109.574 33.1692C109.131 32.9858 108.653 32.8266 108.14 32.6915L106.344 32.2046C105.203 31.8934 104.297 31.4393 103.626 30.8424C102.955 30.2454 102.613 29.4569 102.599 28.4769C102.588 27.6625 102.799 26.9494 103.231 26.3374C103.667 25.7206 104.257 25.239 105.001 24.8927C105.749 24.5415 106.587 24.3596 107.515 24.347C108.452 24.3342 109.288 24.4909 110.022 24.8171C110.755 25.1386 111.339 25.5853 111.773 26.157C112.212 26.7288 112.448 27.3814 112.482 28.1149L110.777 28.1381Z" fill="white"/>
</svg>
